<svg width="24" height="22" viewBox="0 0 24 22" fill="none" xmlns="http://www.w3.org/2000/svg">
<path d="M17.6836 8.27967L12.9054 1.1697C12.8034 1.02614 12.6675 0.909594 12.5097 0.830242C12.3518 0.75089 12.1768 0.711148 12 0.714489C11.6509 0.714489 11.3018 0.866226 11.0945 1.18054L6.31632 8.27967H1.09086C0.490863 8.27967 -4.57764e-05 8.7674 -4.57764e-05 9.36351C-4.57764e-05 9.46106 0.0108633 9.5586 0.0435905 9.65615L2.8145 19.7033C3.06541 20.6137 3.90541 21.2857 4.90905 21.2857H19.0909C20.0945 21.2857 20.9345 20.6137 21.1963 19.7033L23.9672 9.65615L24 9.36351C24 8.7674 23.509 8.27967 22.909 8.27967H17.6836ZM8.72723 8.27967L12 3.51079L15.2727 8.27967H8.72723ZM12 16.9504C10.8 16.9504 9.81814 15.9749 9.81814 14.7827C9.81814 13.5905 10.8 12.615 12 12.615C13.2 12.615 14.1818 13.5905 14.1818 14.7827C14.1818 15.9749 13.2 16.9504 12 16.9504Z" fill="white"/>
</svg>
